<svg version="1.1" xmlns="http://www.w3.org/2000/svg" xmlns:xlink="http://www.w3.org/1999/xlink" width="500" height="500"><defs><linearGradient x1="56.63865" y1="50" x2="56.63865" y2="450" gradientUnits="userSpaceOnUse" id="color-1"><stop offset="0" stop-color="#827e8c"></stop><stop offset="1" stop-color="#8c847e"></stop></linearGradient><clipPath id="clip-1"><rect x="84.67876" y="60.26908" transform="scale(1.85627,1.85627)" width="100" height="100"></rect></clipPath><linearGradient x1="133.98319" y1="111.87563" x2="133.98319" y2="351.87563" gradientUnits="userSpaceOnUse" id="color-2"><stop offset="0" stop-color="#827e8c"></stop><stop offset="1" stop-color="#8c847e"></stop></linearGradient></defs><g data-paper-data="{&quot;description&quot;:&quot;Logo for DGateCafe\n==================\n\nThis logo was generated by MarkMaker at http://emblemmatic.org/markmaker/ and may be composed of elements designed by others.\n\nThe font is Exo ExtraBold Italic designed by Natanael Gama and released under the OFL license via Google Fonts: https://www.google.com/fonts/specimen/Exo. The font includes this copyright statement: Copyright (c) 2011 Natanael Gama (exo@ndiscovered.com), with Reserved Font Name \\\&quot;Exo\\\n\nThe symbol is 'mug' designed by Margot Nadot and released into the public domain at the Noun Project: https://thenounproject.com/term/mug/79291.\n\nMarkMaker uses semantic data from the Princeton University WordNet database http://wordnet.princeton.edu and font descriptions from Google Fonts https://www.google.com/fonts.&quot;}" fill="none" fill-rule="nonzero" stroke="none" stroke-width="none" stroke-linecap="butt" stroke-linejoin="miter" stroke-miterlimit="10" stroke-dasharray="" stroke-dashoffset="0" font-family="none" font-weight="none" font-size="none" text-anchor="none" style="mix-blend-mode: normal"><path d="M95.31092,204.68908c0,-85.43242 69.25666,-154.68908 154.68908,-154.68908c85.43242,0 154.68908,69.25666 154.68908,154.68908c0,85.43242 -69.25666,154.68908 -154.68908,154.68908c-85.43242,0 -154.68908,-69.25666 -154.68908,-154.68908z" fill="none" stroke="#8c7e87" stroke-width="3.5"></path><g data-paper-data="{&quot;elementType&quot;:&quot;logo&quot;}" fill="url(#color-1)" stroke="none" stroke-width="1"><g data-paper-data="{&quot;elementType&quot;:&quot;text&quot;}"><g data-paper-data="{&quot;baseline&quot;:78.60000000000001,&quot;elementType&quot;:&quot;row&quot;}"><g data-paper-data="{&quot;baselineProportion&quot;:0.7415094339622641,&quot;fontSize&quot;:100,&quot;baseline&quot;:78.60000000000001,&quot;elementType&quot;:&quot;word&quot;}"><path d="M92.17122,365.09318c3.37602,0 6.2597,0.61894 8.65104,1.85681c2.39135,1.23787 4.23409,2.86961 5.52823,4.89522c2.30694,3.76989 3.46042,8.89018 3.46042,15.36088c0,3.15095 -0.30947,6.8083 -0.9284,10.97205c-2.13814,14.01047 -6.4707,22.73185 -12.99766,26.16413c-3.26348,1.68801 -7.3991,2.53201 -12.40686,2.53201h-26.83933l9.79045,-61.7811c0,0 8.58071,0 25.74213,0M83.14038,414.88943c3.26348,0 5.82363,-1.54734 7.68044,-4.64202c1.85681,-3.09468 3.29162,-7.79297 4.30442,-14.09487c0.61894,-4.61389 0.9284,-8.03211 0.9284,-10.25465c0,-2.22254 -0.32353,-3.99495 -0.9706,-5.31723c-0.64707,-1.32227 -1.49107,-2.23661 -2.53201,-2.74301c-1.04094,-0.5064 -2.37728,-0.7596 -4.00902,-0.7596h-10.21245l-5.99243,37.81139z" data-paper-data="{&quot;elementType&quot;:&quot;letter&quot;,&quot;baseline&quot;:73.2,&quot;baselineProportion&quot;:1,&quot;fontSize&quot;:100}"></path><path d="M127.535,438.60594c2.25068,0 4.12155,-0.6752 5.61263,-2.02561c1.49107,-1.35041 2.43355,-3.34788 2.82741,-5.99243l1.09721,-7.08963c-2.81335,2.13814 -6.28783,3.20722 -10.42345,3.20722c-4.13562,0 -7.3569,-1.05501 -9.66385,-3.16502c-2.30694,-2.11001 -3.65735,-5.04996 -4.05122,-8.81984c-0.11253,-1.29414 -0.1688,-2.99621 -0.1688,-5.10623c0,-2.11001 0.26727,-4.97962 0.8018,-8.60884c0.53454,-3.62922 1.40667,-6.7661 2.61641,-9.41065c1.20974,-2.64455 2.68675,-4.72642 4.43102,-6.24563c3.31975,-2.81335 7.6523,-4.22002 12.99766,-4.22002c6.1331,0 11.28152,0.35167 15.44528,1.05501c4.16375,0.70334 6.94897,1.28007 8.35564,1.73021l-7.68044,48.53024c-1.85681,11.70352 -8.07431,17.55529 -18.65249,17.55529c-1.06907,0 -2.22254,-0.05627 -3.46042,-0.1688l-19.4965,-2.02561l1.43481,-9.19965h17.97729M130.91101,393.19852c-0.56267,0.6752 -1.04094,1.35041 -1.43481,2.02561c-0.39387,0.6752 -0.91434,2.22254 -1.56141,4.64202c-0.64707,2.41948 -1.04094,4.82489 -1.18161,7.21624c-0.14067,2.39135 -0.211,3.84022 -0.211,4.34662c0,0.5064 0.05627,1.0128 0.1688,1.51921c0.11253,0.5064 0.3376,1.06907 0.6752,1.68801c0.61894,1.06907 2.06781,1.60361 4.34662,1.60361c2.27881,0 4.54356,-0.56267 6.79423,-1.68801l3.71362,-23.29451h-6.83643c-1.91308,0 -3.40415,0.64707 -4.47322,1.94121z" data-paper-data="{&quot;elementType&quot;:&quot;letter&quot;,&quot;baseline&quot;:54.2,&quot;baselineProportion&quot;:0.6642156862745098,&quot;fontSize&quot;:100}"></path><path d="M183.95667,381.21366c0,0 0.85104,0 2.55311,0c1.70208,0 4.43806,0.39387 8.20794,1.18161c3.76989,0.78774 6.6395,2.13814 8.60884,4.05122l-5.90803,40.259h-10.80325l-2.11001,-4.38882c-1.06907,1.51921 -2.82741,2.74301 -5.27503,3.67142c-2.44761,0.9284 -4.96556,1.39261 -7.55384,1.39261c-4.55762,0 -8.01804,-2.25068 -10.38125,-6.75203c-1.35041,-2.64455 -2.02561,-5.65483 -2.02561,-9.03084c0,-3.37602 0.30947,-6.58323 0.9284,-9.62165c0.61894,-3.03841 1.33634,-5.58449 2.15221,-7.63824c0.81587,-2.05374 1.67394,-3.76989 2.57421,-5.14843c0.90027,-1.37854 1.95528,-2.56015 3.16502,-3.54482c1.20974,-0.98467 2.33508,-1.75834 3.37602,-2.32101c1.04094,-0.56267 2.29288,-0.98467 3.75582,-1.26601c2.41948,-0.56267 5.33129,-0.844 8.73544,-0.844M188.5565,392.52332c-1.29414,-0.56267 -2.60235,-0.844 -3.92462,-0.844c-1.32227,0 -2.33508,0.07033 -3.03841,0.211c-0.70334,0.14067 -1.26601,0.2954 -1.68801,0.4642c-0.422,0.1688 -0.91434,0.40794 -1.47701,0.7174c-0.56267,0.30947 -1.04094,0.73147 -1.43481,1.26601c-0.39387,0.53454 -0.78774,1.19567 -1.18161,1.98341c-0.844,1.51921 -1.46294,3.68548 -1.85681,6.49883c-0.45014,3.26348 -0.6752,5.76736 -0.6752,7.51164c0,3.76989 1.43481,5.65483 4.30442,5.65483c3.71362,0 6.41443,-1.43481 8.10244,-4.30442z" data-paper-data="{&quot;elementType&quot;:&quot;letter&quot;,&quot;baseline&quot;:54.1,&quot;baselineProportion&quot;:0.9890310786106034,&quot;fontSize&quot;:100}"></path><path d="M224.08907,408.30619c-0.28133,1.40667 -0.422,2.48981 -0.422,3.24942c0,0.7596 0.07033,1.53327 0.211,2.32101c0.14067,0.78774 0.3798,1.39261 0.7174,1.81461c0.3376,0.422 1.37854,1.0128 3.12282,1.77241c1.74428,0.7596 2.75708,1.13941 3.03841,1.13941l-1.26601,8.35564h-9.03084c-3.88242,0 -6.83643,-1.32227 -8.86204,-3.96682c-1.40667,-1.80054 -2.11001,-4.33255 -2.11001,-7.59604c0,-1.40667 0.14067,-2.92588 0.422,-4.55762l2.95401,-18.82129h-6.83643l1.09721,-7.25844l7.34284,-2.78521l4.13562,-12.49126h11.64726l-1.94121,12.49126h8.86204l-1.51921,10.04365h-8.94644z" data-paper-data="{&quot;elementType&quot;:&quot;letter&quot;,&quot;baseline&quot;:68,&quot;baselineProportion&quot;:0.998531571218796,&quot;fontSize&quot;:100}"></path><path d="M273.67432,406.74479c0,0 -0.37277,0.30243 -1.11831,0.9073c-0.74554,0.60487 -2.04671,1.25897 -3.90352,1.96231c-1.85681,0.70334 -3.53075,1.12534 -5.02182,1.26601c-1.49107,0.14067 -3.47448,0.211 -5.95023,0.211c-2.47575,0 -4.64202,-0.39387 -6.49883,-1.18161c-0.1688,0.844 -0.2532,1.81461 -0.2532,2.91181c0,1.09721 0.39387,2.01154 1.18161,2.74301c0.844,0.78774 2.72895,1.18161 5.65483,1.18161c6.1331,0 11.95673,-0.5064 17.47089,-1.51921l-1.68801,9.79045c-5.68296,1.80054 -11.81606,2.70081 -18.39929,2.70081c-1.91308,0 -3.82615,-0.0844 -5.73923,-0.2532c-8.27124,-0.5064 -12.40686,-6.02056 -12.40686,-16.54248c0,-2.98215 0.30947,-6.1331 0.9284,-9.45285c0.61894,-3.31975 1.26601,-5.9643 1.94121,-7.93364c0.6752,-1.96934 1.56141,-3.78395 2.65861,-5.44383c1.09721,-1.65987 2.43355,-2.96808 4.00902,-3.92462c3.48855,-1.96934 8.41191,-2.95401 14.77007,-2.95401c4.89522,0 9.00271,0.81587 12.32246,2.44761c3.60108,1.80054 5.40163,5.00776 5.40163,9.62165c0,3.15095 -0.52047,5.8799 -1.56141,8.18684c-1.04094,2.30694 -2.30694,4.06529 -3.79802,5.27503M252.27881,400.96336c1.18161,0.22507 2.50388,0.3376 3.96682,0.3376c1.46294,0 2.71488,-0.11253 3.75582,-0.3376c1.04094,-0.22507 2.03968,-0.73147 2.99621,-1.51921c1.29414,-1.0128 1.94121,-2.47575 1.94121,-4.38882c0,-1.0128 -0.3376,-1.80054 -1.0128,-2.36321c-0.6752,-0.56267 -1.91308,-0.844 -3.71362,-0.844c-3.37602,0 -5.57043,1.32227 -6.58323,3.96682c-0.5064,1.18161 -0.95654,2.89775 -1.35041,5.14843z" data-paper-data="{&quot;elementType&quot;:&quot;letter&quot;,&quot;baseline&quot;:54.1,&quot;baselineProportion&quot;:0.9818511796733213,&quot;fontSize&quot;:100}"></path><path d="M291.69381,383.45027c0,0 0.36574,-0.21803 1.09721,-0.6541c0.73147,-0.43607 1.80054,-0.79477 3.20722,-1.07611c1.40667,-0.28133 3.30568,-0.422 5.69703,-0.422c2.39135,0 5.59856,0.22507 9.62165,0.6752c4.02309,0.45014 7.46944,1.18161 10.33905,2.19441l-1.35041,8.35564c-4.44509,-0.39387 -8.24311,-0.5908 -11.39406,-0.5908c-3.15095,0 -5.06402,0.05627 -5.73923,0.1688c-0.6752,0.11253 -1.42074,0.36574 -2.23661,0.7596c-0.81587,0.39387 -1.44887,1.06907 -1.89901,2.02561c-1.06907,2.13814 -1.88494,4.83896 -2.44761,8.10244c-0.61894,3.65735 -0.9284,6.16123 -0.9284,7.51164c0,1.35041 0.0844,2.41948 0.2532,3.20722c0.1688,0.78774 0.56267,1.40667 1.18161,1.85681c1.0128,0.73147 2.70081,1.09721 5.06402,1.09721c4.67016,0 9.03084,-0.19693 13.08206,-0.5908l2.02561,-0.1688l-1.35041,8.44004c-3.15095,1.23787 -6.1753,2.03968 -9.07304,2.40541c-2.89775,0.36574 -5.57043,0.5486 -8.01804,0.5486c-2.44761,0 -4.09342,0 -4.93742,0c-4.50136,-0.05627 -7.84924,-2.13814 -10.04365,-6.24563c-1.35041,-2.53201 -2.02561,-5.47196 -2.02561,-8.81984c0,-3.34788 0.26727,-6.70983 0.8018,-10.08585c0.53454,-3.37602 1.26601,-6.35816 2.19441,-8.94644c0.9284,-2.58828 1.94121,-4.64202 3.03841,-6.16123c1.09721,-1.51921 2.37728,-2.71488 3.84022,-3.58702z" data-paper-data="{&quot;elementType&quot;:&quot;letter&quot;,&quot;baseline&quot;:54,&quot;baselineProportion&quot;:0.9908256880733946,&quot;fontSize&quot;:100}"></path><path d="M345.75227,381.21366c0,0 0.85104,0 2.55311,0c1.70208,0 4.43806,0.39387 8.20794,1.18161c3.76989,0.78774 6.6395,2.13814 8.60884,4.05122l-5.90803,40.259h-10.80325l-2.11001,-4.38882c-1.06907,1.51921 -2.82741,2.74301 -5.27503,3.67142c-2.44761,0.9284 -4.96556,1.39261 -7.55384,1.39261c-4.55762,0 -8.01804,-2.25068 -10.38125,-6.75203c-1.35041,-2.64455 -2.02561,-5.65483 -2.02561,-9.03084c0,-3.37602 0.30947,-6.58323 0.9284,-9.62165c0.61894,-3.03841 1.33634,-5.58449 2.15221,-7.63824c0.81587,-2.05374 1.67394,-3.76989 2.57421,-5.14843c0.90027,-1.37854 1.95528,-2.56015 3.16502,-3.54482c1.20974,-0.98467 2.33508,-1.75834 3.37602,-2.32101c1.04094,-0.56267 2.29288,-0.98467 3.75582,-1.26601c2.41948,-0.56267 5.33129,-0.844 8.73544,-0.844M350.3521,392.52332c-1.29414,-0.56267 -2.60235,-0.844 -3.92462,-0.844c-1.32227,0 -2.33508,0.07033 -3.03841,0.211c-0.70334,0.14067 -1.26601,0.2954 -1.68801,0.4642c-0.422,0.1688 -0.91434,0.40794 -1.47701,0.7174c-0.56267,0.30947 -1.04094,0.73147 -1.43481,1.26601c-0.39387,0.53454 -0.78774,1.19567 -1.18161,1.98341c-0.844,1.51921 -1.46294,3.68548 -1.85681,6.49883c-0.45014,3.26348 -0.6752,5.76736 -0.6752,7.51164c0,3.76989 1.43481,5.65483 4.30442,5.65483c3.71362,0 6.41443,-1.43481 8.10244,-4.30442z" data-paper-data="{&quot;elementType&quot;:&quot;letter&quot;,&quot;baseline&quot;:54.1,&quot;baselineProportion&quot;:0.9890310786106034,&quot;fontSize&quot;:100}"></path><path d="M377.78223,375.05243c0.844,-5.34536 2.58828,-9.10118 5.23283,-11.26746c2.64455,-2.16628 6.3441,-3.24942 11.09865,-3.24942c4.75456,0 8.42597,0.6752 11.01425,2.02561l-1.26601,8.10244l-7.00523,-0.0844c-2.08188,-0.05627 -3.40415,0.36574 -3.96682,1.26601c-0.28133,0.45014 -0.49234,0.78774 -0.633,1.0128c-0.14067,0.22507 -0.2954,0.7596 -0.4642,1.60361c-0.22507,1.06907 -0.47827,2.53201 -0.7596,4.38882l-0.5064,3.20722h9.62165l-1.51921,10.04365h-9.70605l-5.65483,34.77297h-13.84167l5.57043,-34.77297h-6.58323l1.35041,-8.60884l6.92083,-1.43481z" data-paper-data="{&quot;elementType&quot;:&quot;letter&quot;,&quot;baseline&quot;:78.60000000000001,&quot;baselineProportion&quot;:1,&quot;fontSize&quot;:100}"></path><path d="M438.00193,406.74479c0,0 -0.37277,0.30243 -1.11831,0.9073c-0.74554,0.60487 -2.04671,1.25897 -3.90352,1.96231c-1.85681,0.70334 -3.53075,1.12534 -5.02182,1.26601c-1.49107,0.14067 -3.47448,0.211 -5.95023,0.211c-2.47575,0 -4.64202,-0.39387 -6.49883,-1.18161c-0.1688,0.844 -0.2532,1.81461 -0.2532,2.91181c0,1.09721 0.39387,2.01154 1.18161,2.74301c0.844,0.78774 2.72895,1.18161 5.65483,1.18161c6.1331,0 11.95673,-0.5064 17.47089,-1.51921l-1.68801,9.79045c-5.68296,1.80054 -11.81606,2.70081 -18.39929,2.70081c-1.91308,0 -3.82615,-0.0844 -5.73923,-0.2532c-8.27124,-0.5064 -12.40686,-6.02056 -12.40686,-16.54248c0,-2.98215 0.30947,-6.1331 0.9284,-9.45285c0.61894,-3.31975 1.26601,-5.9643 1.94121,-7.93364c0.6752,-1.96934 1.56141,-3.78395 2.65861,-5.44383c1.09721,-1.65987 2.43355,-2.96808 4.00902,-3.92462c3.48855,-1.96934 8.41191,-2.95401 14.77007,-2.95401c4.89522,0 9.00271,0.81587 12.32246,2.44761c3.60108,1.80054 5.40163,5.00776 5.40163,9.62165c0,3.15095 -0.52047,5.8799 -1.56141,8.18684c-1.04094,2.30694 -2.30694,4.06529 -3.79802,5.27503M416.60642,400.96336c1.18161,0.22507 2.50388,0.3376 3.96682,0.3376c1.46294,0 2.71488,-0.11253 3.75582,-0.3376c1.04094,-0.22507 2.03968,-0.73147 2.99621,-1.51921c1.29414,-1.0128 1.94121,-2.47575 1.94121,-4.38882c0,-1.0128 -0.3376,-1.80054 -1.0128,-2.36321c-0.6752,-0.56267 -1.91308,-0.844 -3.71362,-0.844c-3.37602,0 -5.57043,1.32227 -6.58323,3.96682c-0.5064,1.18161 -0.95654,2.89775 -1.35041,5.14843z" data-paper-data="{&quot;elementType&quot;:&quot;letter&quot;,&quot;baseline&quot;:54.1,&quot;baselineProportion&quot;:0.9818511796733213,&quot;fontSize&quot;:100}"></path></g></g></g></g><g clip-path="url(#clip-1)" data-paper-data="{&quot;elementType&quot;:&quot;emblem&quot;}" fill="url(#color-2)" stroke="none" stroke-width="1"><g><path d="M250.30628,149.36299c16.73241,0 30.2906,-4.24157 30.2906,-9.46326c0,-5.22168 -13.55819,-9.4614 -30.2906,-9.4614c-16.7287,0 -30.28689,4.24157 -30.28689,9.46326c0,5.22168 13.55819,9.4614 30.28689,9.4614z"></path><path d="M219.74653,233.13084c2.08459,6.36329 14.82416,11.27498 30.25162,11.27498c15.37176,0 28.09834,-4.87642 30.23677,-11.20258c0.03713,-0.03713 0.07239,-0.05383 0.09096,-0.09096c0.90586,-2.53752 1.74118,-5.25695 2.50225,-8.12118c19.3052,-9.0456 38.61225,-26.13998 38.61225,-48.99808c0,-11.23971 -5.72845,-19.45184 -14.61069,-20.92015c-5.02121,-0.85203 -10.87588,0.70724 -16.29619,5.18456c0.16335,-5.34791 0.19862,-9.31847 0.21718,-11.13947c-2.50225,3.65314 -7.0334,7.33226 -15.13602,9.86978c-6.94245,2.17555 -15.93421,3.37098 -25.30652,3.37098c-9.3723,0 -18.34179,-1.19729 -25.28424,-3.37098c-8.86368,-2.7547 -13.45053,-6.88861 -15.77086,-10.87588c0.01856,3.13524 0.30814,56.17813 10.47864,85.00041zM304.99754,166.05827c3.28188,0.54389 5.29408,4.35109 5.29408,9.93475c0,14.79261 -11.25642,26.81009 -24.40066,34.76792c1.72262,-9.93475 2.84566,-20.4301 3.5529,-29.91934c4.89498,-11.86342 11.81886,-15.39961 15.55368,-14.78333z"></path><path d="M319.62679,210.72567c-6.2909,7.77591 -14.28399,14.28399 -22.75043,19.37759c0.59772,1.59454 0.92442,3.2262 0.92442,4.91169c0,13.90345 -21.40835,25.14316 -47.80264,25.14316c-26.39058,0 -47.79893,-11.23971 -47.79893,-25.14316c0,-3.44338 1.30496,-6.7067 3.67913,-9.68044c-1.99363,-8.17501 -3.46194,-17.16678 -4.56828,-26.03046c-21.10021,7.97639 -34.84217,20.98326 -34.84217,35.7109c0.00186,24.29299 37.43538,43.92489 83.53025,43.92489c46.15242,0 83.53211,-19.6319 83.53211,-43.92304c0,-8.99177 -5.13073,-17.33013 -13.90345,-24.29114z"></path></g></g></g></svg>